ply
format ascii 1.0
comment 0 1 3 4 5 10 12 14 20 21 27 28 35 36 43 44 53 54
element vertex 55
property float x
property float y
property float z
element face 56
property list uint8 uint32 vertex_index
end_header
0 1 0
-2 0 0
0 0 0
2 0 0
2 -1 0
0 -2 0
-2 -1 0
-2 -3 0
0 -4 0
-2 -5 0
0 -6 0
-2 -7 0
0 -8 0
-2 -9 0
0 -10 0
2 -7 0
4 -6 0
2 -5 0
6 -5 0
4 -4 0
8 -4 0
6 -3 0
8 -2 0
6 -1 0
8 0 0
6 1 0
8 2 0
6 2 0
8 3 0
6 3 0
6 4 0
4 3 0
4 5 0
2 4 0
2 6 0
0 7 0
0 5 0
-2 6 0
-2 4 0
-4 5 0
-4 3 0
-6 4 0
-6 3 0
-6 2 0
-8 3 0
-6 1 0
-8 2 0
-6 -1 0
-8 0 0
-6 -3 0
-8 -2 0
-6 -5 0
-8 -4 0
-6 -7 0
-8 -6 0
3 4 2 5
3 3 2 4
3 3 0 2
3 0 1 2
3 2 1 6
3 2 6 5
3 5 6 7
3 5 7 8
3 8 7 9
3 8 9 10
3 10 9 11
3 10 11 12
3 12 11 13
3 12 13 14
3 15 10 12
3 17 10 15
3 16 17 15
3 19 17 16
3 18 19 16
3 21 19 18
3 20 21 18
3 22 21 20
3 22 23 21
3 24 23 22
3 24 25 23
3 26 25 24
3 26 27 25
3 26 29 27
3 28 29 26
3 28 30 29
3 29 31 27
3 30 31 29
3 30 32 31
3 32 33 31
3 32 34 33
3 34 36 33
3 34 35 36
3 35 37 36
3 36 37 38
3 37 39 38
3 38 39 40
3 39 41 40
3 40 41 42
3 40 42 43
3 41 44 42
3 42 44 46
3 42 46 43
3 43 46 45
3 45 46 48
3 45 48 47
3 47 48 50
3 47 50 49
3 49 50 52
3 49 52 51
3 51 52 54
3 51 54 53
